<svg preserveAspectRatio="none" width="100%" height="100%" overflow="visible" style="display: block;" viewBox="0 0 19.9887 19.9887" fill="none" xmlns="http://www.w3.org/2000/svg">
<g id="Icon" clip-path="url(#clip0_0_62)">
<path id="Vector" d="M13.3258 17.4901V15.8244C13.3258 14.9408 12.9748 14.0935 12.35 13.4687C11.7253 12.8439 10.8779 12.4929 9.99435 12.4929H4.99717C4.11362 12.4929 3.26625 12.8439 2.64148 13.4687C2.01672 14.0935 1.66572 14.9408 1.66572 15.8244V17.4901" stroke="var(--stroke-0, white)" stroke-width="1.66572" stroke-linecap="round" stroke-linejoin="round"/>
<path id="Vector_2" d="M7.49576 9.16149C9.33567 9.16149 10.8272 7.66995 10.8272 5.83004C10.8272 3.99013 9.33567 2.49859 7.49576 2.49859C5.65585 2.49859 4.16431 3.99013 4.16431 5.83004C4.16431 7.66995 5.65585 9.16149 7.49576 9.16149Z" stroke="var(--stroke-0, white)" stroke-width="1.66572" stroke-linecap="round" stroke-linejoin="round"/>
<path id="Vector_3" d="M18.323 17.4901V15.8244C18.3224 15.0862 18.0767 14.3692 17.6245 13.7858C17.1723 13.2024 16.5391 12.7857 15.8244 12.6012" stroke="var(--stroke-0, white)" stroke-width="1.66572" stroke-linecap="round" stroke-linejoin="round"/>
<path id="Vector_4" d="M13.3258 2.60686C14.0424 2.79034 14.6776 3.2071 15.1311 3.79145C15.5847 4.37579 15.8309 5.09448 15.8309 5.8342C15.8309 6.57393 15.5847 7.29261 15.1311 7.87695C14.6776 8.4613 14.0424 8.87806 13.3258 9.06154" stroke="var(--stroke-0, white)" stroke-width="1.66572" stroke-linecap="round" stroke-linejoin="round"/>
</g>
<defs>
<clipPath id="clip0_0_62">
<rect width="19.9887" height="19.9887" fill="white"/>
</clipPath>
</defs>
</svg>
