<svg preserveAspectRatio="none" width="100%" height="100%" overflow="visible" style="display: block;" viewBox="0 0 23.9983 23.9983" fill="none" xmlns="http://www.w3.org/2000/svg">
<g id="Icon">
<path id="Vector" d="M11.9992 6.9995V20.9995" stroke="var(--stroke-0, #FFD700)" stroke-width="1.99986" stroke-linecap="round" stroke-linejoin="round"/>
<path id="Vector_2" d="M2.99993 17.9989C2.73473 17.9989 2.4804 17.8936 2.29287 17.7061C2.10535 17.5185 2 17.2642 2 16.999V3.99993C2 3.73473 2.10535 3.4804 2.29287 3.29287C2.4804 3.10535 2.73473 3 2.99993 3H7.99958C9.06037 3 10.0777 3.4214 10.8278 4.17149C11.5779 4.92158 11.9993 5.93893 11.9993 6.99972C11.9993 5.93893 12.4207 4.92158 13.1708 4.17149C13.9209 3.4214 14.9382 3 15.999 3H20.9987C21.2639 3 21.5182 3.10535 21.7057 3.29287C21.8932 3.4804 21.9986 3.73473 21.9986 3.99993V16.999C21.9986 17.2642 21.8932 17.5185 21.7057 17.7061C21.5182 17.8936 21.2639 17.9989 20.9987 17.9989H14.9991C14.2035 17.9989 13.4405 18.315 12.8779 18.8776C12.3153 19.4401 11.9993 20.2031 11.9993 20.9987C11.9993 20.2031 11.6832 19.4401 11.1207 18.8776C10.5581 18.315 9.7951 17.9989 8.9995 17.9989H2.99993Z" stroke="var(--stroke-0, #FFD700)" stroke-width="1.99986" stroke-linecap="round" stroke-linejoin="round"/>
</g>
</svg>
