<svg preserveAspectRatio="none" width="100%" height="100%" overflow="visible" style="display: block;" viewBox="0 0 23.9983 23.9983" fill="none" xmlns="http://www.w3.org/2000/svg">
<g id="Icon">
<path id="Vector" d="M19.9986 15.9989V6.9995C19.9986 6.46911 19.7879 5.96044 19.4128 5.58539C19.0378 5.21034 18.5291 4.99965 17.9987 4.99965H5.99957C5.46918 4.99965 4.96051 5.21034 4.58546 5.58539C4.21042 5.96044 3.99972 6.46911 3.99972 6.9995V15.9989M19.9986 15.9989H3.99972M19.9986 15.9989L21.2785 18.5487C21.3556 18.7017 21.3921 18.8719 21.3845 19.043C21.3769 19.2141 21.3255 19.3805 21.2351 19.526C21.1448 19.6716 21.0186 19.7914 20.8686 19.8742C20.7186 19.9569 20.5499 19.9998 20.3786 19.9986H3.61974C3.44845 19.9998 3.27971 19.9569 3.12972 19.8742C2.97973 19.7914 2.85352 19.6716 2.76318 19.526C2.67284 19.3805 2.62141 19.2141 2.61381 19.043C2.60622 18.8719 2.64272 18.7017 2.71981 18.5487L3.99972 15.9989" stroke="var(--stroke-0, #28A745)" stroke-width="1.99986" stroke-linecap="round" stroke-linejoin="round"/>
</g>
</svg>
