<svg preserveAspectRatio="none" width="100%" height="100%" overflow="visible" style="display: block;" viewBox="0 0 23.9983 23.9983" fill="none" xmlns="http://www.w3.org/2000/svg">
<g id="Icon">
<path id="Vector" d="M15.4765 12.8891L16.9915 21.4151C17.0085 21.5155 16.9944 21.6187 16.9511 21.7108C16.9079 21.803 16.8375 21.8798 16.7494 21.9309C16.6614 21.982 16.5598 22.005 16.4583 21.9968C16.3568 21.9886 16.2602 21.9496 16.1815 21.8851L12.6015 19.1981C12.4287 19.069 12.2187 18.9992 12.003 18.9992C11.7873 18.9992 11.5773 19.069 11.4045 19.1981L7.8185 21.8841C7.73982 21.9485 7.64337 21.9874 7.542 21.9956C7.44063 22.0038 7.33918 21.9809 7.25117 21.93C7.16316 21.879 7.09278 21.8024 7.04942 21.7104C7.00607 21.6184 6.99179 21.5154 7.0085 21.4151L8.5225 12.8891" stroke="var(--stroke-0, #28A745)" stroke-width="1.99986" stroke-linecap="round" stroke-linejoin="round"/>
<path id="Vector_2" d="M11.9996 13.9999C15.3133 13.9999 17.9996 11.3136 17.9996 7.99986C17.9996 4.68615 15.3133 1.99986 11.9996 1.99986C8.68587 1.99986 5.99957 4.68615 5.99957 7.99986C5.99957 11.3136 8.68587 13.9999 11.9996 13.9999Z" stroke="var(--stroke-0, #28A745)" stroke-width="1.99986" stroke-linecap="round" stroke-linejoin="round"/>
</g>
</svg>
