<svg preserveAspectRatio="none" width="100%" height="100%" overflow="visible" style="display: block;" viewBox="0 0 23.9983 23.9983" fill="none" xmlns="http://www.w3.org/2000/svg">
<g id="Icon">
<path id="Vector" d="M15.9999 20.9989V18.9989C15.9999 17.9381 15.5784 16.9207 14.8283 16.1705C14.0781 15.4204 13.0607 14.9989 11.9999 14.9989H5.99986C4.93899 14.9989 3.92158 15.4204 3.17143 16.1705C2.42129 16.9207 1.99986 17.9381 1.99986 18.9989V20.9989" stroke="var(--stroke-0, #0057B8)" stroke-width="1.99986" stroke-linecap="round" stroke-linejoin="round"/>
<path id="Vector_2" d="M8.99965 10.9998C11.2088 10.9998 12.9996 9.20893 12.9996 6.99979C12.9996 4.79065 11.2088 2.99979 8.99965 2.99979C6.79051 2.99979 4.99965 4.79065 4.99965 6.99979C4.99965 9.20893 6.79051 10.9998 8.99965 10.9998Z" stroke="var(--stroke-0, #0057B8)" stroke-width="1.99986" stroke-linecap="round" stroke-linejoin="round"/>
<path id="Vector_3" d="M21.9987 20.9989V18.9989C21.998 18.1127 21.703 17.2517 21.16 16.5512C20.617 15.8508 19.8568 15.3505 18.9987 15.1289" stroke="var(--stroke-0, #0057B8)" stroke-width="1.99986" stroke-linecap="round" stroke-linejoin="round"/>
<path id="Vector_4" d="M15.9989 3.12978C16.8593 3.35008 17.6219 3.85048 18.1665 4.55209C18.7111 5.2537 19.0067 6.11661 19.0067 7.00478C19.0067 7.89295 18.7111 8.75586 18.1665 9.45747C17.6219 10.1591 16.8593 10.6595 15.9989 10.8798" stroke="var(--stroke-0, #0057B8)" stroke-width="1.99986" stroke-linecap="round" stroke-linejoin="round"/>
</g>
</svg>
